<?xml version="1.0" encoding="iso-8859-1"?>
<!-- Uploaded to: SVG Repo, www.svgrepo.com, Generator: SVG Repo Mixer Tools -->
<svg fill="#000000" height="800px" width="800px" version="1.1" id="Layer_1" xmlns="http://www.w3.org/2000/svg" xmlns:xlink="http://www.w3.org/1999/xlink" 
	 viewBox="0 0 512 512" xml:space="preserve">
<g>
	<g>
		<path d="M256,0C114.608,0,0,114.608,0,256s114.608,256,256,256s256-114.608,256-256S397.392,0,256,0z M256,496
			C123.664,496,16,388.336,16,256S123.664,16,256,16s240,107.664,240,240S388.336,496,256,496z"/>
	</g>
</g>
<g>
	<g>
		<polygon points="390.48,249.424 164.08,249.424 252.048,161.44 240.736,150.128 134.336,256.528 143.008,265.2 143.008,265.424 
			143.232,265.424 240.736,362.912 252.048,351.6 165.856,265.424 390.48,265.424 		"/>
	</g>
</g>
</svg>